<svg xmlns="http://www.w3.org/2000/svg" viewBox="0 0 512 512">
  <defs>
    <linearGradient id="grad1" x1="0%" y1="0%" x2="100%" y2="100%">
      <stop offset="0%" style="stop-color:#FF512F;stop-opacity:1" />
      <stop offset="100%" style="stop-color:#DD2476;stop-opacity:1" />
    </linearGradient>
  </defs>
  <rect width="512" height="512" rx="100" fill="url(#grad1)" />
  <g transform="translate(106, 106) scale(0.6)">
    <path fill="white" d="M256 320c44.1 0 80-35.9 80-80V112c0-44.1-35.9-80-80-80s-80 35.9-80 80v128c0 44.1 35.9 80 80 80z"/>
    <path fill="white" d="M416 208c0 88.4-71.6 160-160 160s-160-71.6-160-160H48c0 101.3 72.5 185.6 168 198.2V464H160c-17.7 0-32 14.3-32 32s14.3 32 32 32h192c17.7 0 32-14.3 32-32s-14.3-32-32-32h-56v-57.8c95.5-12.6 168-96.9 168-198.2h-48z"/>
  </g>
</svg>
